<?xml version="1.0" encoding="UTF-8" standalone="no"?>
<!DOCTYPE svg PUBLIC "-//W3C//DTD SVG 1.1//EN" "http://www.w3.org/Graphics/SVG/1.1/DTD/svg11.dtd">
<svg version="1.1" xmlns="http://www.w3.org/2000/svg" xmlns:xlink="http://www.w3.org/1999/xlink" preserveAspectRatio="xMidYMid meet" viewBox="0 0 110 99" width="110" height="99"><defs><path d="M100.48 6.14L110.43 6.14L110.43 93.69L100.48 93.69L100.48 6.14Z" id="d3I8Koq80"></path><path d="M35.81 25.59L77.76 0L83.56 5.27L75.86 13.14L67.61 18.62L54.12 26.63L43.38 30.62L35.81 25.59Z" id="e1CukL9TqC"></path><path d="M0 5.21L40.26 30.11L40.26 99.52L6.93 84.04L0 5.21Z" id="a48eMqNyy"></path><path d="M83.57 5.28L43.3 30.11L43.3 99.58L76.63 84.11L83.57 5.28Z" id="a1oouW30io"></path><path d="M43.41 70.82L43.41 86.66L61.75 74.57L67.2 57.2L43.41 70.82Z" id="b45d0HSTVL"></path><path d="M43.26 46.69L43.26 60.48L61.61 50.45L67.09 32.45L43.26 46.69Z" id="f8uZ2pCQ4"></path><path d="M40.31 70.82L40.31 86.66L21.96 74.57L16.51 57.2L40.31 70.82Z" id="d62rMs35V"></path><path d="M40.45 46.54L40.45 60.34L22.11 50.3L16.62 32.3L40.45 46.54Z" id="ev6L4QhdM"></path></defs><g><g><g><g><use xlink:href="#d3I8Koq80" opacity="1" fill="#d8d8d8" fill-opacity="1"></use><g><use xlink:href="#d3I8Koq80" opacity="1" fill-opacity="0" stroke="#000000" stroke-width="1" stroke-opacity="0"></use></g></g><g><use xlink:href="#e1CukL9TqC" opacity="1" fill="#000000" fill-opacity="1"></use><g><use xlink:href="#e1CukL9TqC" opacity="1" fill-opacity="0" stroke="#000000" stroke-width="1" stroke-opacity="0"></use></g></g><g><use xlink:href="#a48eMqNyy" opacity="1" fill="#000000" fill-opacity="1"></use><g><use xlink:href="#a48eMqNyy" opacity="1" fill-opacity="0" stroke="#000000" stroke-width="1" stroke-opacity="0"></use></g></g><g><use xlink:href="#a1oouW30io" opacity="1" fill="#000000" fill-opacity="1"></use><g><use xlink:href="#a1oouW30io" opacity="1" fill-opacity="0" stroke="#000000" stroke-width="1" stroke-opacity="0"></use></g></g><g><use xlink:href="#b45d0HSTVL" opacity="1" fill="#ffffff" fill-opacity="1"></use><g><use xlink:href="#b45d0HSTVL" opacity="1" fill-opacity="0" stroke="#000000" stroke-width="1" stroke-opacity="0"></use></g></g><g><use xlink:href="#f8uZ2pCQ4" opacity="1" fill="#ffffff" fill-opacity="1"></use><g><use xlink:href="#f8uZ2pCQ4" opacity="1" fill-opacity="0" stroke="#000000" stroke-width="1" stroke-opacity="0"></use></g></g><g><use xlink:href="#d62rMs35V" opacity="1" fill="#ffffff" fill-opacity="1"></use><g><use xlink:href="#d62rMs35V" opacity="1" fill-opacity="0" stroke="#000000" stroke-width="1" stroke-opacity="0"></use></g></g><g><use xlink:href="#ev6L4QhdM" opacity="1" fill="#ffffff" fill-opacity="1"></use><g><use xlink:href="#ev6L4QhdM" opacity="1" fill-opacity="0" stroke="#000000" stroke-width="1" stroke-opacity="0"></use></g></g></g></g></g></svg>