<?xml version="1.0" encoding="UTF-8" standalone="no"?>
<!DOCTYPE svg PUBLIC "-//W3C//DTD SVG 1.1//EN" "http://www.w3.org/Graphics/SVG/1.1/DTD/svg11.dtd">
<svg version="1.1" xmlns="http://www.w3.org/2000/svg" xmlns:xlink="http://www.w3.org/1999/xlink" preserveAspectRatio="xMidYMid meet" viewBox="0 0 84 99" width="84" height="99"><defs><path d="M77.76 0L83.56 5.27L75.86 13.14L67.61 18.62L54.12 26.63L43.38 30.62L35.81 25.59L77.76 0Z" id="bN7uEA38W"></path><path d="M77.76 0L83.56 5.27L75.86 13.14L67.61 18.62L54.12 26.63L43.38 30.62L35.81 25.59L77.76 0Z" id="ajEClTUOy"></path><path d="M40.26 30.11L40.26 99.52L6.93 84.04L0 5.21L40.26 30.11Z" id="a3zmmg3XOi"></path><path d="M40.26 30.11L40.26 99.52L6.93 84.04L0 5.21L40.26 30.11Z" id="c6CtKSWUzC"></path><path d="M43.3 30.11L43.3 99.58L76.63 84.11L83.57 5.28L43.3 30.11Z" id="b2MwX5b0kj"></path><path d="M43.3 30.11L43.3 99.58L76.63 84.11L83.57 5.28L43.3 30.11Z" id="b1uJQ2Od4s"></path><path d="M43.41 86.66L61.75 74.57L67.2 57.2L43.41 70.82L43.41 86.66Z" id="i1q5hn0xuf"></path><path d="M43.41 86.66L61.75 74.57L67.2 57.2L43.41 70.82L43.41 86.66Z" id="d25Ulu8wV"></path><path d="M43.26 60.48L61.61 50.45L67.09 32.45L43.26 46.69L43.26 60.48Z" id="b6eF3rZlu"></path><path d="M43.26 60.48L61.61 50.45L67.09 32.45L43.26 46.69L43.26 60.48Z" id="h5EbgJmxZh"></path><path d="M40.31 86.66L21.96 74.57L16.51 57.2L40.31 70.82L40.31 86.66Z" id="bwESwk94e"></path><path d="M40.31 86.66L21.96 74.57L16.51 57.2L40.31 70.82L40.31 86.66Z" id="d1e3EIHm4"></path><path d="M40.45 60.34L22.11 50.3L16.62 32.3L40.45 46.54L40.45 60.34Z" id="a113kJScoy"></path><path d="M40.45 60.34L22.11 50.3L16.62 32.3L40.45 46.54L40.45 60.34Z" id="b5eeKJzfLX"></path></defs><g><g><g><g><use xlink:href="#bN7uEA38W" opacity="1" fill="#000000" fill-opacity="1"></use><g><use xlink:href="#bN7uEA38W" opacity="1" fill-opacity="0" stroke="#000000" stroke-width="1" stroke-opacity="0"></use></g></g><g><use xlink:href="#ajEClTUOy" opacity="1" fill="#000000" fill-opacity="0"></use><g><use xlink:href="#ajEClTUOy" opacity="1" fill-opacity="0" stroke="#000000" stroke-width="1" stroke-opacity="0"></use></g></g><g><use xlink:href="#a3zmmg3XOi" opacity="1" fill="#000000" fill-opacity="1"></use><g><use xlink:href="#a3zmmg3XOi" opacity="1" fill-opacity="0" stroke="#000000" stroke-width="1" stroke-opacity="0"></use></g></g><g><use xlink:href="#c6CtKSWUzC" opacity="1" fill="#000000" fill-opacity="0"></use><g><use xlink:href="#c6CtKSWUzC" opacity="1" fill-opacity="0" stroke="#000000" stroke-width="1" stroke-opacity="0"></use></g></g><g><use xlink:href="#b2MwX5b0kj" opacity="1" fill="#000000" fill-opacity="1"></use><g><use xlink:href="#b2MwX5b0kj" opacity="1" fill-opacity="0" stroke="#000000" stroke-width="1" stroke-opacity="0"></use></g></g><g><use xlink:href="#b1uJQ2Od4s" opacity="1" fill="#000000" fill-opacity="0"></use><g><use xlink:href="#b1uJQ2Od4s" opacity="1" fill-opacity="0" stroke="#000000" stroke-width="1" stroke-opacity="0"></use></g></g><g><use xlink:href="#i1q5hn0xuf" opacity="1" fill="#ffffff" fill-opacity="1"></use><g><use xlink:href="#i1q5hn0xuf" opacity="1" fill-opacity="0" stroke="#000000" stroke-width="1" stroke-opacity="0"></use></g></g><g><use xlink:href="#d25Ulu8wV" opacity="1" fill="#000000" fill-opacity="0"></use><g><use xlink:href="#d25Ulu8wV" opacity="1" fill-opacity="0" stroke="#000000" stroke-width="1" stroke-opacity="0"></use></g></g><g><use xlink:href="#b6eF3rZlu" opacity="1" fill="#ffffff" fill-opacity="1"></use><g><use xlink:href="#b6eF3rZlu" opacity="1" fill-opacity="0" stroke="#000000" stroke-width="1" stroke-opacity="0"></use></g></g><g><use xlink:href="#h5EbgJmxZh" opacity="1" fill="#000000" fill-opacity="0"></use><g><use xlink:href="#h5EbgJmxZh" opacity="1" fill-opacity="0" stroke="#000000" stroke-width="1" stroke-opacity="0"></use></g></g><g><use xlink:href="#bwESwk94e" opacity="1" fill="#ffffff" fill-opacity="1"></use><g><use xlink:href="#bwESwk94e" opacity="1" fill-opacity="0" stroke="#000000" stroke-width="1" stroke-opacity="0"></use></g></g><g><use xlink:href="#d1e3EIHm4" opacity="1" fill="#000000" fill-opacity="0"></use><g><use xlink:href="#d1e3EIHm4" opacity="1" fill-opacity="0" stroke="#000000" stroke-width="1" stroke-opacity="0"></use></g></g><g><use xlink:href="#a113kJScoy" opacity="1" fill="#ffffff" fill-opacity="1"></use><g><use xlink:href="#a113kJScoy" opacity="1" fill-opacity="0" stroke="#000000" stroke-width="1" stroke-opacity="0"></use></g></g><g><use xlink:href="#b5eeKJzfLX" opacity="1" fill="#000000" fill-opacity="0"></use><g><use xlink:href="#b5eeKJzfLX" opacity="1" fill-opacity="0" stroke="#000000" stroke-width="1" stroke-opacity="0"></use></g></g></g></g></g></svg>